<?xml version="1.0" encoding="UTF-8"?>
<svg xmlns="http://www.w3.org/2000/svg" xmlns:xlink="http://www.w3.org/1999/xlink" width="115px" height="150px" viewBox="0 0 115 149" version="1.1">
<defs>
<clipPath id="clip1">
  <path d="M 55 13 L 104 13 L 104 39 L 55 39 Z M 55 13 "/>
</clipPath>
<clipPath id="clip2">
  <path d="M 55.050781 13.539062 L 55.050781 36.867188 C 55.050781 37.878906 55.878906 38.703125 56.898438 38.703125 L 101.769531 38.703125 C 102.785156 38.703125 103.617188 37.878906 103.617188 36.867188 L 103.617188 22.390625 C 103.539062 22.765625 103.351562 22.988281 103.125 23.214844 C 102.863281 23.476562 102.222656 23.550781 102.222656 23.550781 C 102.222656 23.550781 57.085938 25.089844 56.558594 25.128906 C 56.03125 25.164062 55.917969 25.203125 55.578125 25.425781 C 55.238281 25.652344 55.125 26.253906 55.125 26.253906 L 55.125 13.238281 C 55.050781 13.3125 55.050781 13.425781 55.050781 13.539062 "/>
</clipPath>
<linearGradient id="linear0" gradientUnits="userSpaceOnUse" x1="4507.8735" y1="-11827.5205" x2="4509.5933" y2="-11827.5205" gradientTransform="matrix(0.000000000000000964,15.668814,-15.74122,0.000000000000000959,-186100.283048,-70620.164735)">
<stop offset="0" style="stop-color:rgb(89.803922%,13.72549%,12.54902%);stop-opacity:1;"/>
<stop offset="0.58" style="stop-color:rgb(88.627451%,13.333333%,12.156863%);stop-opacity:1;"/>
<stop offset="0.95" style="stop-color:rgb(85.098039%,12.941176%,12.156863%);stop-opacity:1;"/>
<stop offset="1" style="stop-color:rgb(84.705882%,12.941176%,12.156863%);stop-opacity:1;"/>
</linearGradient>
<linearGradient id="linear1" gradientUnits="userSpaceOnUse" x1="210.2091" y1="221.3" x2="210.2091" y2="293.5118" gradientTransform="matrix(0.376764,0,0,0.375031,0.0434181,-71.214649)">
<stop offset="0.4" style="stop-color:rgb(100%,0%,0%);stop-opacity:1;"/>
<stop offset="1" style="stop-color:rgb(83.137255%,13.72549%,12.941176%);stop-opacity:1;"/>
</linearGradient>
<filter id="alpha" filterUnits="objectBoundingBox" x="0%" y="0%" width="100%" height="100%">
  <feColorMatrix type="matrix" in="SourceGraphic" values="0 0 0 0 1 0 0 0 0 1 0 0 0 0 1 0 0 0 1 0"/>
</filter>
<mask id="mask0">
  <g filter="url(#alpha)">
<rect x="0" y="0" width="115" height="149" style="fill:rgb(0%,0%,0%);fill-opacity:0.4;stroke:none;"/>
  </g>
</mask>
<linearGradient id="linear2" gradientUnits="userSpaceOnUse" x1="210.6532" y1="256.1248" x2="209.3972" y2="220.1574" gradientTransform="matrix(0.376764,0,0,0.375031,0.0434181,-71.214649)">
<stop offset="0" style="stop-color:rgb(100%,100%,100%);stop-opacity:1;"/>
<stop offset="1" style="stop-color:rgb(100%,100%,100%);stop-opacity:0.25098;"/>
</linearGradient>
<clipPath id="clip3">
  <rect x="0" y="0" width="115" height="149"/>
</clipPath>
<g id="surface5" clip-path="url(#clip3)">
<path style=" stroke:none;fill-rule:nonzero;fill:url(#linear2);" d="M 56.21875 25.203125 C 56.21875 25.203125 56.292969 25.203125 56.371094 25.203125 C 61.71875 25.015625 102.183594 23.628906 102.183594 23.628906 C 102.863281 23.589844 103.539062 23.101562 103.539062 22.238281 L 103.539062 13.574219 C 103.539062 12.601562 102.710938 11.777344 101.730469 11.777344 L 56.707031 11.777344 C 55.730469 11.777344 54.898438 12.601562 54.898438 13.574219 L 54.898438 26.628906 C 54.898438 26.476562 54.976562 25.351562 56.21875 25.203125 Z M 56.21875 25.203125 "/>
</g>
<linearGradient id="linear3" gradientUnits="userSpaceOnUse" x1="82.5343" y1="225.4567" x2="82.5343" y2="289.3585" gradientTransform="matrix(0.376764,0,0,0.375031,0.0434181,-71.214649)">
<stop offset="0" style="stop-color:rgb(0%,16.470588%,56.862745%);stop-opacity:1;"/>
<stop offset="0.8" style="stop-color:rgb(0%,14.901961%,44.705882%);stop-opacity:1;"/>
</linearGradient>
<mask id="mask1">
  <g filter="url(#alpha)">
<rect x="0" y="0" width="115" height="149" style="fill:rgb(0%,0%,0%);fill-opacity:0.25098;stroke:none;"/>
  </g>
</mask>
<linearGradient id="linear4" gradientUnits="userSpaceOnUse" x1="83.0763" y1="259.3113" x2="82.2315" y2="235.1221" gradientTransform="matrix(0.376764,0,0,0.375031,0.0434181,-71.214649)">
<stop offset="0" style="stop-color:rgb(100%,100%,100%);stop-opacity:1;"/>
<stop offset="1" style="stop-color:rgb(100%,100%,100%);stop-opacity:0.25098;"/>
</linearGradient>
<clipPath id="clip4">
  <rect x="0" y="0" width="115" height="149"/>
</clipPath>
<g id="surface8" clip-path="url(#clip4)">
<path style=" stroke:none;fill-rule:nonzero;fill:url(#linear4);" d="M 50.832031 18.640625 L 48.042969 24.828125 C 47.96875 24.976562 47.628906 25.539062 46.875 25.539062 C 46.6875 25.539062 44.3125 25.613281 44.3125 25.613281 C 43.859375 25.613281 43.710938 26.066406 43.710938 26.066406 L 46.121094 20.402344 C 46.949219 18.414062 48.269531 18.226562 49.25 18.226562 C 49.8125 18.265625 50.53125 18.453125 50.832031 18.640625 Z M 43.523438 26.027344 L 38.8125 18.414062 C 38.511719 18.339844 37.71875 18.1875 37.191406 18.1875 C 35.460938 18.1875 34.515625 18.828125 33.539062 19.875 L 28.828125 24.976562 L 29.203125 25.539062 C 29.355469 25.765625 29.695312 26.101562 30.335938 26.101562 C 30.5625 26.101562 32.820312 26.027344 33.011719 26.027344 C 33.574219 26.027344 33.988281 26.253906 34.179688 26.550781 L 33.347656 25.316406 L 36.589844 21.902344 L 38.738281 25.277344 C 39.152344 25.765625 39.714844 25.800781 39.828125 25.800781 C 39.941406 25.800781 42.804688 25.691406 42.917969 25.691406 C 43.144531 25.691406 43.371094 25.765625 43.523438 26.027344 Z M 27.734375 13.351562 C 25.25 13.351562 24.835938 14.664062 24.835938 15.902344 L 24.835938 27.226562 C 24.835938 26.777344 25.171875 26.289062 25.777344 26.253906 C 26.191406 26.253906 27.359375 26.175781 27.699219 26.175781 C 28.074219 26.175781 28.640625 25.914062 28.675781 25.203125 L 28.675781 13.464844 C 28.339844 13.351562 28.035156 13.351562 27.734375 13.351562 Z M 19.445312 23.851562 L 16.621094 23.328125 C 15.71875 23.175781 15.152344 22.953125 15.152344 22.464844 C 15.152344 21.976562 15.753906 21.601562 17.1875 21.601562 C 18.582031 21.601562 19.824219 21.75 20.613281 21.75 C 21.632812 21.75 22.726562 21.300781 22.726562 19.277344 C 22.726562 19.015625 22.6875 18.75 22.648438 18.488281 C 21.105469 18.300781 18.316406 18 16.019531 18.265625 C 12.964844 18.601562 11.421875 20.402344 11.421875 22.578125 C 11.421875 23.703125 11.910156 24.753906 12.929688 25.539062 C 13.683594 26.027344 14.4375 26.214844 15.1875 26.363281 C 15.828125 26.476562 17.261719 26.550781 18.355469 26.515625 C 18.691406 26.515625 21.179688 26.441406 21.707031 26.402344 C 22.949219 26.363281 23.628906 27.414062 23.589844 28.503906 C 23.589844 28.503906 23.589844 28.464844 23.589844 28.464844 C 23.589844 28.316406 23.589844 28.203125 23.589844 28.050781 C 23.589844 26.027344 22.347656 24.378906 19.445312 23.851562 Z M 19.445312 23.851562 "/>
</g>
</defs>
<g id="surface1">
<path style=" stroke:none;fill-rule:nonzero;fill:rgb(100%,100%,100%);fill-opacity:1;" d="M 57.5 149 C 25.8125 149 0.0429688 122.933594 0.0429688 90.945312 C 0.0429688 90.570312 0.0429688 23.140625 0.0429688 8.964844 L 0.0429688 0 L 114.917969 0 L 114.917969 8.964844 C 114.917969 23.0625 114.917969 90.421875 114.917969 90.945312 C 114.957031 122.933594 89.1875 149 57.5 149 "/>
<path style=" stroke:none;fill-rule:nonzero;fill:rgb(73.333333%,9.019608%,19.215686%);fill-opacity:1;" d="M 111.679688 8.964844 L 111.679688 3.226562 L 3.320312 3.226562 L 3.320312 8.964844 C 3.320312 23.289062 3.320312 90.570312 3.320312 90.945312 C 3.320312 121.171875 27.621094 145.738281 57.539062 145.738281 C 87.453125 145.738281 111.753906 121.171875 111.753906 90.945312 C 111.714844 90.421875 111.679688 22.953125 111.679688 8.964844 M 57.5 142.511719 C 29.394531 142.511719 6.5625 119.371094 6.5625 90.945312 C 6.5625 89.933594 6.5625 19.988281 6.5625 6.488281 L 108.4375 6.488281 C 108.4375 19.988281 108.4375 89.933594 108.4375 90.945312 C 108.4375 119.371094 85.605469 142.511719 57.5 142.511719 "/>
<path style=" stroke:none;fill-rule:nonzero;fill:rgb(15.686275%,19.607843%,44.313725%);fill-opacity:1;" d="M 55.917969 130.472656 C 54.5625 130.472656 53.429688 129.386719 53.429688 128 L 53.429688 114.496094 L 63.152344 114.496094 L 63.152344 118.210938 L 57.425781 118.210938 L 57.425781 120.609375 L 62.625 120.609375 L 62.625 124.324219 L 57.425781 124.324219 L 57.425781 130.472656 Z M 41.035156 128 C 41.035156 129.347656 42.128906 130.472656 43.523438 130.472656 L 50.679688 130.472656 L 50.679688 126.796875 L 45.027344 126.796875 L 45.027344 124.324219 L 50.226562 124.324219 L 50.226562 120.609375 L 45.027344 120.609375 L 45.027344 118.210938 L 50.71875 118.210938 L 50.71875 114.496094 L 41.035156 114.496094 Z M 74.566406 130.472656 L 74.566406 126.796875 L 69.59375 126.796875 L 69.59375 114.535156 L 65.601562 114.535156 L 65.601562 128.035156 C 65.601562 129.386719 66.691406 130.511719 68.085938 130.511719 L 74.566406 130.511719 Z M 74.566406 130.472656 "/>
<path style=" stroke:none;fill-rule:nonzero;fill:rgb(15.686275%,19.607843%,44.313725%);fill-opacity:1;" d="M 64.546875 84.308594 C 62.886719 84.308594 61.53125 85.65625 61.53125 87.308594 C 61.53125 88.957031 62.886719 90.308594 64.546875 90.308594 C 66.203125 90.308594 67.558594 88.957031 67.558594 87.308594 C 67.558594 85.65625 66.203125 84.308594 64.546875 84.308594 "/>
<path style=" stroke:none;fill-rule:nonzero;fill:rgb(15.686275%,19.607843%,44.313725%);fill-opacity:1;" d="M 61.078125 79.09375 C 59.570312 79.09375 58.367188 80.292969 58.367188 81.792969 C 58.367188 83.292969 59.570312 84.496094 61.078125 84.496094 C 62.585938 84.496094 63.792969 83.292969 63.792969 81.792969 C 63.753906 80.292969 62.546875 79.09375 61.078125 79.09375 "/>
<path style=" stroke:none;fill-rule:nonzero;fill:rgb(15.686275%,19.607843%,44.313725%);fill-opacity:1;" d="M 66.429688 76.320312 C 64.960938 76.320312 63.792969 77.480469 63.792969 78.945312 C 63.792969 80.40625 64.960938 81.570312 66.429688 81.570312 C 67.898438 81.570312 69.066406 80.40625 69.066406 78.945312 C 69.066406 77.480469 67.898438 76.320312 66.429688 76.320312 "/>
<path style=" stroke:none;fill-rule:nonzero;fill:rgb(15.686275%,19.607843%,44.313725%);fill-opacity:1;" d="M 57.425781 75.34375 C 56.179688 75.34375 55.203125 76.355469 55.203125 77.554688 C 55.203125 78.757812 56.21875 79.769531 57.425781 79.769531 C 58.628906 79.769531 59.648438 78.757812 59.648438 77.554688 C 59.648438 76.355469 58.667969 75.34375 57.425781 75.34375 "/>
<path style=" stroke:none;fill-rule:nonzero;fill:rgb(15.686275%,19.607843%,44.313725%);fill-opacity:1;" d="M 53.355469 73.46875 C 52.339844 73.46875 51.507812 74.292969 51.507812 75.304688 C 51.507812 76.320312 52.339844 77.144531 53.355469 77.144531 C 54.371094 77.144531 55.203125 76.320312 55.203125 75.304688 C 55.203125 74.292969 54.371094 73.46875 53.355469 73.46875 "/>
<path style=" stroke:none;fill-rule:nonzero;fill:rgb(15.686275%,19.607843%,44.313725%);fill-opacity:1;" d="M 49.589844 73.019531 C 48.796875 73.019531 48.117188 73.65625 48.117188 74.480469 C 48.117188 75.304688 48.757812 75.945312 49.589844 75.945312 C 50.417969 75.945312 51.058594 75.304688 51.058594 74.480469 C 51.058594 73.65625 50.378906 73.019531 49.589844 73.019531 "/>
<path style=" stroke:none;fill-rule:nonzero;fill:rgb(15.686275%,19.607843%,44.313725%);fill-opacity:1;" d="M 54.222656 70.394531 C 53.429688 70.394531 52.828125 71.03125 52.828125 71.78125 C 52.828125 72.53125 53.46875 73.167969 54.222656 73.167969 C 54.976562 73.167969 55.617188 72.53125 55.617188 71.78125 C 55.617188 71.03125 55.011719 70.394531 54.222656 70.394531 "/>
<path style=" stroke:none;fill-rule:nonzero;fill:rgb(15.686275%,19.607843%,44.313725%);fill-opacity:1;" d="M 57.726562 67.730469 C 56.972656 67.730469 56.332031 68.332031 56.332031 69.117188 C 56.332031 69.90625 56.933594 70.507812 57.726562 70.507812 C 58.515625 70.507812 59.121094 69.90625 59.121094 69.117188 C 59.121094 68.332031 58.515625 67.730469 57.726562 67.730469 "/>
<path style=" stroke:none;fill-rule:nonzero;fill:rgb(15.686275%,19.607843%,44.313725%);fill-opacity:1;" d="M 54.675781 67.917969 C 54.070312 67.917969 53.582031 68.40625 53.582031 69.003906 C 53.582031 69.605469 54.070312 70.09375 54.675781 70.09375 C 55.277344 70.09375 55.765625 69.605469 55.765625 69.003906 C 55.765625 68.40625 55.277344 67.917969 54.675781 67.917969 "/>
<path style=" stroke:none;fill-rule:nonzero;fill:rgb(15.686275%,19.607843%,44.313725%);fill-opacity:1;" d="M 52 68.480469 C 51.472656 68.480469 51.019531 68.929688 51.019531 69.457031 C 51.019531 69.980469 51.472656 70.429688 52 70.429688 C 52.527344 70.429688 52.980469 69.980469 52.980469 69.457031 C 52.980469 68.929688 52.527344 68.480469 52 68.480469 "/>
<path style=" stroke:none;fill-rule:nonzero;fill:rgb(15.686275%,19.607843%,44.313725%);fill-opacity:1;" d="M 50.757812 70.65625 C 50.152344 70.65625 49.699219 71.144531 49.699219 71.707031 C 49.699219 72.269531 50.191406 72.757812 50.757812 72.757812 C 51.320312 72.757812 51.8125 72.269531 51.8125 71.707031 C 51.8125 71.144531 51.359375 70.65625 50.757812 70.65625 "/>
<path style=" stroke:none;fill-rule:nonzero;fill:rgb(15.686275%,19.607843%,44.313725%);fill-opacity:1;" d="M 47.328125 70.917969 C 46.800781 70.917969 46.347656 71.367188 46.347656 71.894531 C 46.347656 72.417969 46.800781 72.867188 47.328125 72.867188 C 47.855469 72.867188 48.308594 72.417969 48.308594 71.894531 C 48.308594 71.367188 47.890625 70.917969 47.328125 70.917969 "/>
<path style=" stroke:none;fill-rule:nonzero;fill:rgb(15.686275%,19.607843%,44.313725%);fill-opacity:1;" d="M 48.949219 69.566406 C 48.53125 69.566406 48.230469 69.90625 48.230469 70.28125 C 48.230469 70.65625 48.570312 70.992188 48.949219 70.992188 C 49.324219 70.992188 49.664062 70.65625 49.664062 70.28125 C 49.664062 69.90625 49.363281 69.566406 48.949219 69.566406 "/>
<path style=" stroke:none;fill-rule:nonzero;fill:rgb(15.686275%,19.607843%,44.313725%);fill-opacity:1;" d="M 44.992188 71.929688 C 44.613281 71.929688 44.3125 72.230469 44.3125 72.605469 C 44.3125 72.980469 44.613281 73.28125 44.992188 73.28125 C 45.367188 73.28125 45.667969 72.980469 45.667969 72.605469 C 45.667969 72.230469 45.367188 71.929688 44.992188 71.929688 "/>
<path style=" stroke:none;fill-rule:nonzero;fill:rgb(15.686275%,19.607843%,44.313725%);fill-opacity:1;" d="M 46.273438 73.207031 C 45.632812 73.207031 45.105469 73.730469 45.105469 74.367188 C 45.105469 75.007812 45.632812 75.53125 46.273438 75.53125 C 46.914062 75.53125 47.441406 75.007812 47.441406 74.367188 C 47.441406 73.730469 46.914062 73.207031 46.273438 73.207031 "/>
<path style=" stroke:none;fill-rule:nonzero;fill:rgb(15.686275%,19.607843%,44.313725%);fill-opacity:1;" d="M 43.410156 73.582031 C 42.917969 73.582031 42.503906 73.992188 42.503906 74.480469 C 42.503906 74.96875 42.917969 75.382812 43.410156 75.382812 C 43.898438 75.382812 44.3125 74.96875 44.3125 74.480469 C 44.3125 73.992188 43.898438 73.582031 43.410156 73.582031 "/>
<path style=" stroke:none;fill-rule:nonzero;fill:rgb(15.686275%,19.607843%,44.313725%);fill-opacity:1;" d="M 41.523438 75.195312 C 41.1875 75.195312 40.921875 75.457031 40.921875 75.792969 C 40.921875 76.132812 41.1875 76.394531 41.523438 76.394531 C 41.863281 76.394531 42.128906 76.132812 42.128906 75.792969 C 42.128906 75.457031 41.863281 75.195312 41.523438 75.195312 "/>
<path style=" stroke:none;fill-rule:nonzero;fill:rgb(15.686275%,19.607843%,44.313725%);fill-opacity:1;" d="M 62.132812 73.054688 C 60.929688 73.054688 59.910156 74.03125 59.910156 75.269531 C 59.910156 76.507812 60.890625 77.480469 62.132812 77.480469 C 63.339844 77.480469 64.355469 76.507812 64.355469 75.269531 C 64.355469 74.03125 63.378906 73.054688 62.132812 73.054688 "/>
<path style=" stroke:none;fill-rule:nonzero;fill:rgb(15.686275%,19.607843%,44.313725%);fill-opacity:1;" d="M 70.308594 81.15625 C 68.765625 81.15625 67.523438 82.394531 67.523438 83.933594 C 67.523438 85.46875 68.765625 86.707031 70.308594 86.707031 C 71.855469 86.707031 73.097656 85.46875 73.097656 83.933594 C 73.097656 82.394531 71.855469 81.15625 70.308594 81.15625 "/>
<path style=" stroke:none;fill-rule:nonzero;fill:rgb(15.686275%,19.607843%,44.313725%);fill-opacity:1;" d="M 73.324219 76.320312 C 72.003906 76.320312 70.914062 77.40625 70.914062 78.71875 C 70.914062 80.03125 72.003906 81.121094 73.324219 81.121094 C 74.644531 81.121094 75.734375 80.03125 75.734375 78.71875 C 75.734375 77.40625 74.679688 76.320312 73.324219 76.320312 "/>
<path style=" stroke:none;fill-rule:nonzero;fill:rgb(15.686275%,19.607843%,44.313725%);fill-opacity:1;" d="M 69.894531 72.304688 C 68.652344 72.304688 67.636719 73.320312 67.636719 74.554688 C 67.636719 75.792969 68.652344 76.804688 69.894531 76.804688 C 71.140625 76.804688 72.15625 75.792969 72.15625 74.554688 C 72.15625 73.320312 71.140625 72.304688 69.894531 72.304688 "/>
<path style=" stroke:none;fill-rule:nonzero;fill:rgb(15.686275%,19.607843%,44.313725%);fill-opacity:1;" d="M 65.636719 69.566406 C 64.46875 69.566406 63.566406 70.507812 63.566406 71.632812 C 63.566406 72.757812 64.507812 73.695312 65.636719 73.695312 C 66.769531 73.695312 67.710938 72.757812 67.710938 71.632812 C 67.710938 70.507812 66.804688 69.566406 65.636719 69.566406 "/>
<path style=" stroke:none;fill-rule:nonzero;fill:rgb(15.686275%,19.607843%,44.313725%);fill-opacity:1;" d="M 61.457031 68.144531 C 60.476562 68.144531 59.722656 68.929688 59.722656 69.867188 C 59.722656 70.804688 60.515625 71.59375 61.457031 71.59375 C 62.398438 71.59375 63.1875 70.804688 63.1875 69.867188 C 63.1875 68.929688 62.4375 68.144531 61.457031 68.144531 "/>
<path style=" stroke:none;fill-rule:nonzero;fill:rgb(15.686275%,19.607843%,44.313725%);fill-opacity:1;" d="M 57.953125 71.105469 C 56.933594 71.105469 56.105469 71.929688 56.105469 72.945312 C 56.105469 73.957031 56.933594 74.78125 57.953125 74.78125 C 58.96875 74.78125 59.796875 73.957031 59.796875 72.945312 C 59.796875 71.929688 58.96875 71.105469 57.953125 71.105469 "/>
<path style=" stroke:none;fill-rule:nonzero;fill:rgb(73.333333%,9.019608%,19.215686%);fill-opacity:1;" d="M 58.441406 95.933594 C 58.441406 97.582031 57.085938 98.933594 55.429688 98.933594 C 53.769531 98.933594 52.414062 97.582031 52.414062 95.933594 C 52.414062 94.28125 53.769531 92.933594 55.429688 92.933594 C 57.085938 92.933594 58.441406 94.246094 58.441406 95.933594 "/>
<path style=" stroke:none;fill-rule:nonzero;fill:rgb(73.333333%,9.019608%,19.215686%);fill-opacity:1;" d="M 61.984375 93.007812 C 60.476562 93.007812 59.269531 94.207031 59.269531 95.707031 C 59.269531 97.207031 60.476562 98.410156 61.984375 98.410156 C 63.492188 98.410156 64.695312 97.207031 64.695312 95.707031 C 64.695312 94.207031 63.453125 93.007812 61.984375 93.007812 "/>
<path style=" stroke:none;fill-rule:nonzero;fill:rgb(73.333333%,9.019608%,19.215686%);fill-opacity:1;" d="M 61.71875 99.121094 C 60.25 99.121094 59.082031 100.285156 59.082031 101.746094 C 59.082031 103.207031 60.25 104.371094 61.71875 104.371094 C 63.1875 104.371094 64.355469 103.207031 64.355469 101.746094 C 64.355469 100.285156 63.1875 99.121094 61.71875 99.121094 "/>
<path style=" stroke:none;fill-rule:nonzero;fill:rgb(73.333333%,9.019608%,19.215686%);fill-opacity:1;" d="M 67.445312 92.445312 C 66.203125 92.445312 65.222656 93.457031 65.222656 94.65625 C 65.222656 95.859375 66.242188 96.90625 67.445312 96.90625 C 68.652344 96.90625 69.667969 95.894531 69.667969 94.695312 C 69.667969 93.496094 68.691406 92.445312 67.445312 92.445312 "/>
<path style=" stroke:none;fill-rule:nonzero;fill:rgb(73.333333%,9.019608%,19.215686%);fill-opacity:1;" d="M 71.441406 90.457031 C 70.421875 90.457031 69.59375 91.28125 69.59375 92.296875 C 69.59375 93.308594 70.421875 94.132812 71.441406 94.132812 C 72.457031 94.132812 73.285156 93.308594 73.285156 92.296875 C 73.285156 91.28125 72.457031 90.457031 71.441406 90.457031 "/>
<path style=" stroke:none;fill-rule:nonzero;fill:rgb(73.333333%,9.019608%,19.215686%);fill-opacity:1;" d="M 74.039062 87.980469 C 73.25 87.980469 72.570312 88.621094 72.570312 89.445312 C 72.570312 90.269531 73.210938 90.90625 74.039062 90.90625 C 74.867188 90.90625 75.507812 90.269531 75.507812 89.445312 C 75.507812 88.621094 74.867188 87.980469 74.039062 87.980469 "/>
<path style=" stroke:none;fill-rule:nonzero;fill:rgb(73.333333%,9.019608%,19.215686%);fill-opacity:1;" d="M 74.078125 93.421875 C 73.285156 93.421875 72.683594 94.058594 72.683594 94.808594 C 72.683594 95.558594 73.324219 96.195312 74.078125 96.195312 C 74.832031 96.195312 75.472656 95.558594 75.472656 94.808594 C 75.472656 94.058594 74.867188 93.382812 74.078125 93.421875 "/>
<path style=" stroke:none;fill-rule:nonzero;fill:rgb(73.333333%,9.019608%,19.215686%);fill-opacity:1;" d="M 74.644531 97.808594 C 73.890625 97.808594 73.25 98.410156 73.25 99.195312 C 73.25 99.984375 73.851562 100.582031 74.644531 100.582031 C 75.433594 100.582031 76.035156 99.984375 76.035156 99.195312 C 76.035156 98.410156 75.394531 97.808594 74.644531 97.808594 "/>
<path style=" stroke:none;fill-rule:nonzero;fill:rgb(73.333333%,9.019608%,19.215686%);fill-opacity:1;" d="M 76.261719 95.484375 C 75.660156 95.484375 75.171875 95.96875 75.171875 96.570312 C 75.171875 97.171875 75.660156 97.65625 76.261719 97.65625 C 76.867188 97.65625 77.355469 97.171875 77.355469 96.570312 C 77.355469 95.96875 76.867188 95.484375 76.261719 95.484375 "/>
<path style=" stroke:none;fill-rule:nonzero;fill:rgb(73.333333%,9.019608%,19.215686%);fill-opacity:1;" d="M 77.203125 93.046875 C 76.675781 93.046875 76.226562 93.496094 76.226562 94.019531 C 76.226562 94.546875 76.675781 94.996094 77.203125 94.996094 C 77.730469 94.996094 78.183594 94.546875 78.183594 94.019531 C 78.183594 93.496094 77.730469 93.046875 77.203125 93.046875 "/>
<path style=" stroke:none;fill-rule:nonzero;fill:rgb(73.333333%,9.019608%,19.215686%);fill-opacity:1;" d="M 75.886719 90.796875 C 75.285156 90.796875 74.832031 91.28125 74.832031 91.84375 C 74.832031 92.40625 75.320312 92.894531 75.886719 92.894531 C 76.453125 92.894531 76.941406 92.40625 76.941406 91.84375 C 76.941406 91.28125 76.488281 90.796875 75.886719 90.796875 "/>
<path style=" stroke:none;fill-rule:nonzero;fill:rgb(73.333333%,9.019608%,19.215686%);fill-opacity:1;" d="M 77.429688 87.832031 C 76.902344 87.832031 76.453125 88.28125 76.453125 88.808594 C 76.453125 89.332031 76.867188 89.78125 77.429688 89.78125 C 77.996094 89.78125 78.410156 89.332031 78.410156 88.808594 C 78.410156 88.28125 77.957031 87.832031 77.429688 87.832031 "/>
<path style=" stroke:none;fill-rule:nonzero;fill:rgb(73.333333%,9.019608%,19.215686%);fill-opacity:1;" d="M 78.035156 90.269531 C 77.621094 90.269531 77.316406 90.609375 77.316406 90.984375 C 77.316406 91.359375 77.65625 91.695312 78.035156 91.695312 C 78.410156 91.695312 78.75 91.359375 78.75 90.984375 C 78.75 90.609375 78.449219 90.269531 78.035156 90.269531 "/>
<path style=" stroke:none;fill-rule:nonzero;fill:rgb(73.333333%,9.019608%,19.215686%);fill-opacity:1;" d="M 77.996094 85.769531 C 77.621094 85.769531 77.316406 86.070312 77.316406 86.445312 C 77.316406 86.820312 77.621094 87.121094 77.996094 87.121094 C 78.371094 87.121094 78.675781 86.820312 78.675781 86.445312 C 78.675781 86.070312 78.371094 85.769531 77.996094 85.769531 "/>
<path style=" stroke:none;fill-rule:nonzero;fill:rgb(73.333333%,9.019608%,19.215686%);fill-opacity:1;" d="M 75.8125 85.46875 C 75.171875 85.46875 74.644531 85.996094 74.644531 86.632812 C 74.644531 87.269531 75.171875 87.792969 75.8125 87.792969 C 76.453125 87.792969 76.980469 87.269531 76.980469 86.632812 C 76.980469 85.996094 76.453125 85.46875 75.8125 85.46875 "/>
<path style=" stroke:none;fill-rule:nonzero;fill:rgb(73.333333%,9.019608%,19.215686%);fill-opacity:1;" d="M 77.167969 83.21875 C 76.675781 83.21875 76.261719 83.632812 76.261719 84.121094 C 76.261719 84.605469 76.675781 85.019531 77.167969 85.019531 C 77.65625 85.019531 78.070312 84.605469 78.070312 84.121094 C 78.070312 83.632812 77.65625 83.21875 77.167969 83.21875 "/>
<path style=" stroke:none;fill-rule:nonzero;fill:rgb(73.333333%,9.019608%,19.215686%);fill-opacity:1;" d="M 76.941406 81.230469 C 76.601562 81.230469 76.339844 81.496094 76.339844 81.832031 C 76.339844 82.167969 76.601562 82.433594 76.941406 82.433594 C 77.28125 82.433594 77.542969 82.167969 77.542969 81.832031 C 77.542969 81.496094 77.28125 81.230469 76.941406 81.230469 "/>
<path style=" stroke:none;fill-rule:nonzero;fill:rgb(73.333333%,9.019608%,19.215686%);fill-opacity:1;" d="M 67.109375 97.695312 C 65.902344 97.695312 64.882812 98.671875 64.882812 99.910156 C 64.882812 101.144531 65.863281 102.121094 67.109375 102.121094 C 68.351562 102.121094 69.332031 101.144531 69.332031 99.910156 C 69.332031 98.671875 68.3125 97.695312 67.109375 97.695312 "/>
<path style=" stroke:none;fill-rule:nonzero;fill:rgb(73.333333%,9.019608%,19.215686%);fill-opacity:1;" d="M 55.464844 99.832031 C 53.921875 99.832031 52.675781 101.070312 52.675781 102.609375 C 52.675781 104.144531 53.921875 105.382812 55.464844 105.382812 C 57.011719 105.382812 58.253906 104.144531 58.253906 102.609375 C 58.253906 101.070312 57.011719 99.832031 55.464844 99.832031 "/>
<path style=" stroke:none;fill-rule:nonzero;fill:rgb(73.333333%,9.019608%,19.215686%);fill-opacity:1;" d="M 58.515625 105.421875 C 57.199219 105.421875 56.105469 106.507812 56.105469 107.820312 C 56.105469 109.132812 57.199219 110.222656 58.515625 110.222656 C 59.835938 110.222656 60.929688 109.132812 60.929688 107.820312 C 60.929688 106.507812 59.835938 105.421875 58.515625 105.421875 "/>
<path style=" stroke:none;fill-rule:nonzero;fill:rgb(73.333333%,9.019608%,19.215686%);fill-opacity:1;" d="M 63.867188 104.671875 C 62.625 104.671875 61.605469 105.683594 61.605469 106.921875 C 61.605469 108.160156 62.625 109.171875 63.867188 109.171875 C 65.109375 109.171875 66.128906 108.160156 66.128906 106.921875 C 66.128906 105.683594 65.109375 104.671875 63.867188 104.671875 "/>
<path style=" stroke:none;fill-rule:nonzero;fill:rgb(73.333333%,9.019608%,19.215686%);fill-opacity:1;" d="M 68.5 102.644531 C 67.332031 102.644531 66.429688 103.582031 66.429688 104.707031 C 66.429688 105.832031 67.371094 106.769531 68.5 106.769531 C 69.632812 106.769531 70.574219 105.832031 70.574219 104.707031 C 70.574219 103.582031 69.667969 102.644531 68.5 102.644531 "/>
<path style=" stroke:none;fill-rule:nonzero;fill:rgb(73.333333%,9.019608%,19.215686%);fill-opacity:1;" d="M 72.117188 100.246094 C 71.140625 100.246094 70.386719 101.035156 70.386719 101.972656 C 70.386719 102.910156 71.175781 103.695312 72.117188 103.695312 C 73.058594 103.695312 73.851562 102.910156 73.851562 101.972656 C 73.851562 101.035156 73.097656 100.246094 72.117188 100.246094 "/>
<path style=" stroke:none;fill-rule:nonzero;fill:rgb(73.333333%,9.019608%,19.215686%);fill-opacity:1;" d="M 71.214844 95.632812 C 70.195312 95.632812 69.367188 96.457031 69.367188 97.433594 C 69.367188 98.410156 70.195312 99.269531 71.214844 99.269531 C 72.230469 99.269531 73.058594 98.445312 73.058594 97.433594 C 73.058594 96.421875 72.230469 95.632812 71.214844 95.632812 "/>
<path style=" stroke:none;fill-rule:nonzero;fill:rgb(15.686275%,19.607843%,44.313725%);fill-opacity:1;" d="M 52.488281 80.707031 C 50.832031 80.707031 49.476562 82.058594 49.476562 83.707031 C 49.476562 85.355469 50.832031 86.707031 52.488281 86.707031 C 54.148438 86.707031 55.503906 85.355469 55.503906 83.707031 C 55.503906 82.058594 54.183594 80.707031 52.488281 80.707031 M 49.398438 86.820312 C 47.890625 86.820312 46.6875 88.019531 46.6875 89.519531 C 46.6875 91.019531 47.890625 92.21875 49.398438 92.21875 C 50.90625 92.21875 52.113281 91.019531 52.113281 89.519531 C 52.113281 88.019531 50.90625 86.820312 49.398438 86.820312 M 44.277344 83.667969 C 42.804688 83.667969 41.636719 84.832031 41.636719 86.292969 C 41.636719 87.757812 42.804688 88.921875 44.277344 88.921875 C 45.746094 88.921875 46.914062 87.757812 46.914062 86.292969 C 46.914062 84.832031 45.746094 83.667969 44.277344 83.667969 M 47.589844 92.519531 C 46.347656 92.519531 45.367188 93.53125 45.367188 94.734375 C 45.367188 95.933594 46.386719 96.945312 47.589844 96.945312 C 48.835938 96.945312 49.851562 95.933594 49.851562 94.734375 C 49.851562 93.53125 48.796875 92.519531 47.589844 92.519531 M 47.667969 97.546875 C 46.648438 97.546875 45.820312 98.371094 45.820312 99.382812 C 45.820312 100.394531 46.648438 101.222656 47.667969 101.222656 C 48.683594 101.222656 49.511719 100.394531 49.511719 99.382812 C 49.511719 98.371094 48.683594 97.546875 47.667969 97.546875 M 48.796875 101.597656 C 47.96875 101.597656 47.328125 102.234375 47.328125 103.058594 C 47.328125 103.882812 47.96875 104.519531 48.796875 104.519531 C 49.625 104.519531 50.265625 103.882812 50.265625 103.058594 C 50.265625 102.234375 49.589844 101.597656 48.796875 101.597656 M 44.125 99.007812 C 43.332031 99.007812 42.730469 99.644531 42.730469 100.394531 C 42.730469 101.144531 43.371094 101.785156 44.125 101.785156 C 44.878906 101.785156 45.519531 101.144531 45.519531 100.394531 C 45.519531 99.644531 44.917969 99.007812 44.125 99.007812 M 40.054688 97.359375 C 39.300781 97.359375 38.660156 97.957031 38.660156 98.746094 C 38.660156 99.535156 39.265625 100.132812 40.054688 100.132812 C 40.847656 100.132812 41.449219 99.535156 41.449219 98.746094 C 41.449219 97.957031 40.808594 97.359375 40.054688 97.359375 M 41.523438 100.359375 C 40.921875 100.359375 40.433594 100.847656 40.433594 101.445312 C 40.433594 102.046875 40.921875 102.535156 41.523438 102.535156 C 42.128906 102.535156 42.617188 102.046875 42.617188 101.445312 C 42.617188 100.847656 42.128906 100.359375 41.523438 100.359375 M 43.257812 102.496094 C 42.730469 102.496094 42.277344 102.945312 42.277344 103.472656 C 42.277344 103.996094 42.730469 104.445312 43.257812 104.445312 C 43.785156 104.445312 44.238281 103.996094 44.238281 103.472656 C 44.238281 102.945312 43.785156 102.496094 43.257812 102.496094 M 45.78125 102.382812 C 45.179688 102.382812 44.726562 102.871094 44.726562 103.433594 C 44.726562 103.996094 45.21875 104.484375 45.78125 104.484375 C 46.347656 104.484375 46.835938 103.996094 46.835938 103.433594 C 46.835938 102.871094 46.386719 102.382812 45.78125 102.382812 M 47.667969 105.347656 C 47.140625 105.347656 46.6875 105.757812 46.6875 106.320312 C 46.6875 106.882812 47.140625 107.296875 47.667969 107.296875 C 48.195312 107.296875 48.644531 106.847656 48.644531 106.320312 C 48.644531 105.796875 48.195312 105.347656 47.667969 105.347656 M 45.480469 104.972656 C 45.066406 104.972656 44.765625 105.308594 44.765625 105.683594 C 44.765625 106.058594 45.105469 106.394531 45.480469 106.394531 C 45.859375 106.394531 46.195312 106.058594 46.195312 105.683594 C 46.195312 105.308594 45.894531 104.972656 45.480469 104.972656 M 49.476562 107.296875 C 49.097656 107.296875 48.796875 107.597656 48.796875 107.972656 C 48.796875 108.347656 49.097656 108.648438 49.476562 108.648438 C 49.851562 108.648438 50.152344 108.347656 50.152344 107.972656 C 50.152344 107.597656 49.851562 107.296875 49.476562 107.296875 M 50.378906 104.785156 C 49.738281 104.785156 49.210938 105.308594 49.210938 105.945312 C 49.210938 106.582031 49.738281 107.109375 50.378906 107.109375 C 51.019531 107.109375 51.546875 106.582031 51.546875 105.945312 C 51.546875 105.308594 51.019531 104.785156 50.378906 104.785156 M 51.886719 107.484375 C 51.394531 107.484375 50.980469 107.898438 50.980469 108.382812 C 50.980469 108.871094 51.394531 109.285156 51.886719 109.285156 C 52.375 109.285156 52.789062 108.871094 52.789062 108.382812 C 52.789062 107.898438 52.414062 107.484375 51.886719 107.484375 M 53.996094 108.757812 C 53.65625 108.757812 53.394531 109.023438 53.394531 109.359375 C 53.394531 109.695312 53.65625 109.960938 53.996094 109.960938 C 54.335938 109.960938 54.597656 109.695312 54.597656 109.359375 C 54.597656 109.023438 54.335938 108.757812 53.996094 108.757812 M 43.183594 89.671875 C 41.976562 89.671875 40.960938 90.644531 40.960938 91.882812 C 40.960938 93.121094 41.941406 94.09375 43.183594 94.09375 C 44.425781 94.09375 45.40625 93.121094 45.40625 91.882812 C 45.40625 90.644531 44.386719 89.671875 43.183594 89.671875 M 46.648438 77.707031 C 45.105469 77.707031 43.859375 78.945312 43.859375 80.480469 C 43.859375 82.019531 45.105469 83.257812 46.648438 83.257812 C 48.195312 83.257812 49.4375 82.019531 49.4375 80.480469 C 49.4375 78.945312 48.195312 77.707031 46.648438 77.707031 M 40.621094 78.082031 C 39.300781 78.082031 38.210938 79.167969 38.210938 80.480469 C 38.210938 81.792969 39.300781 82.882812 40.621094 82.882812 C 41.941406 82.882812 43.03125 81.792969 43.03125 80.480469 C 43.03125 79.167969 41.941406 78.082031 40.621094 78.082031 M 38.699219 83.332031 C 37.457031 83.332031 36.4375 84.34375 36.4375 85.582031 C 36.4375 86.820312 37.457031 87.792969 38.699219 87.792969 C 39.941406 87.792969 40.960938 86.78125 40.960938 85.582031 C 40.960938 84.382812 39.941406 83.332031 38.699219 83.332031 M 38.285156 88.546875 C 37.117188 88.546875 36.210938 89.484375 36.210938 90.609375 C 36.210938 91.734375 37.15625 92.707031 38.285156 92.707031 C 39.414062 92.707031 40.355469 91.769531 40.355469 90.609375 C 40.355469 89.445312 39.453125 88.546875 38.285156 88.546875 M 38.886719 93.382812 C 37.910156 93.382812 37.15625 94.171875 37.15625 95.109375 C 37.15625 96.046875 37.945312 96.832031 38.886719 96.832031 C 39.828125 96.832031 40.621094 96.046875 40.621094 95.109375 C 40.621094 94.171875 39.828125 93.382812 38.886719 93.382812 M 43.257812 94.808594 C 42.242188 94.808594 41.449219 95.632812 41.449219 96.609375 C 41.449219 97.621094 42.277344 98.445312 43.257812 98.445312 C 44.238281 98.445312 45.066406 97.621094 45.066406 96.609375 C 45.066406 95.59375 44.277344 94.808594 43.257812 94.808594 "/>
<path style=" stroke:none;fill-rule:nonzero;fill:rgb(73.333333%,9.019608%,19.215686%);fill-opacity:1;" d="M 11.421875 60.566406 C 11.421875 60.941406 11.722656 61.28125 12.136719 61.28125 L 102.863281 61.28125 C 103.238281 61.28125 103.578125 60.941406 103.578125 60.566406 C 103.578125 60.191406 103.238281 59.855469 102.863281 59.855469 L 12.136719 59.855469 C 11.722656 59.855469 11.421875 60.15625 11.421875 60.566406 "/>
<path style=" stroke:none;fill-rule:nonzero;fill:rgb(73.333333%,9.019608%,19.215686%);fill-opacity:1;" d="M 19.222656 54.15625 L 18.957031 55.355469 C 18.882812 55.65625 18.730469 55.730469 18.503906 55.730469 L 14.398438 55.730469 C 13.230469 55.730469 12.550781 55.128906 12.550781 53.816406 L 12.550781 44.253906 C 12.550781 43.992188 12.664062 43.917969 13.003906 43.917969 L 14.4375 43.917969 C 14.773438 43.917969 14.886719 43.992188 14.886719 44.253906 L 14.886719 53.816406 L 18.84375 53.816406 C 19.144531 53.78125 19.296875 53.855469 19.222656 54.15625 "/>
<path style=" stroke:none;fill-rule:nonzero;fill:rgb(73.333333%,9.019608%,19.215686%);fill-opacity:1;" d="M 27.09375 54.042969 L 26.945312 55.429688 C 26.945312 55.617188 26.867188 55.691406 26.644531 55.691406 L 22.121094 55.691406 C 20.953125 55.691406 20.277344 55.09375 20.277344 53.78125 L 20.277344 44.214844 C 20.277344 43.992188 20.351562 43.878906 20.613281 43.878906 L 26.792969 43.878906 C 26.980469 43.878906 27.09375 43.953125 27.058594 44.140625 L 26.90625 45.527344 C 26.90625 45.714844 26.792969 45.792969 26.605469 45.792969 L 22.6875 45.792969 L 22.6875 48.753906 L 26.304688 48.753906 C 26.53125 48.753906 26.566406 48.828125 26.566406 49.015625 L 26.417969 50.402344 C 26.417969 50.554688 26.304688 50.628906 26.117188 50.628906 L 22.6875 50.628906 L 22.6875 53.742188 L 26.832031 53.742188 C 27.058594 53.78125 27.132812 53.855469 27.09375 54.042969 "/>
<path style=" stroke:none;fill-rule:nonzero;fill:rgb(73.333333%,9.019608%,19.215686%);fill-opacity:1;" d="M 28.074219 55.429688 C 29.128906 51.417969 30.148438 47.480469 31.164062 44.328125 C 31.238281 44.027344 31.464844 43.878906 31.804688 43.878906 L 33.800781 43.878906 C 34.214844 43.878906 34.367188 44.027344 34.480469 44.328125 C 35.460938 47.441406 36.550781 51.417969 37.605469 55.429688 C 37.644531 55.617188 37.570312 55.691406 37.34375 55.691406 L 35.574219 55.691406 C 35.308594 55.691406 35.15625 55.578125 35.15625 55.429688 L 34.707031 53.367188 L 31.089844 53.367188 C 30.9375 54.078125 30.789062 54.753906 30.636719 55.46875 C 30.597656 55.617188 30.484375 55.691406 30.261719 55.691406 L 28.375 55.691406 C 28.074219 55.691406 28.035156 55.617188 28.074219 55.429688 M 34.253906 51.53125 C 33.914062 49.765625 33.386719 47.628906 32.898438 45.828125 L 32.785156 45.828125 C 32.332031 47.628906 31.765625 49.765625 31.464844 51.53125 Z M 34.253906 51.53125 "/>
<path style=" stroke:none;fill-rule:nonzero;fill:rgb(73.333333%,9.019608%,19.215686%);fill-opacity:1;" d="M 44.277344 51.042969 C 43.257812 51.042969 42.730469 50.480469 42.730469 49.503906 L 42.730469 49.390625 C 42.730469 49.203125 42.804688 49.089844 42.996094 49.089844 L 46.5 49.089844 C 46.6875 49.089844 46.800781 49.167969 46.800781 49.355469 L 46.800781 54.492188 C 46.800781 54.90625 46.6875 55.128906 46.386719 55.242188 C 45.554688 55.617188 44.164062 55.84375 42.882812 55.84375 C 39.792969 55.84375 38.398438 54.605469 38.398438 51.867188 L 38.398438 47.816406 C 38.398438 44.890625 40.019531 43.691406 43.144531 43.691406 C 44.199219 43.691406 45.292969 43.839844 46.007812 44.027344 C 46.234375 44.105469 46.308594 44.179688 46.308594 44.441406 L 46.308594 45.792969 C 46.308594 46.015625 46.160156 46.054688 45.933594 45.980469 C 45.253906 45.792969 44.277344 45.679688 43.332031 45.679688 C 41.828125 45.679688 40.773438 46.167969 40.773438 48.042969 L 40.773438 51.605469 C 40.773438 52.503906 40.921875 52.992188 41.222656 53.367188 C 41.488281 53.703125 42.050781 53.890625 42.882812 53.890625 C 43.484375 53.890625 44.199219 53.816406 44.539062 53.703125 L 44.539062 51.042969 Z M 44.277344 51.042969 "/>
<path style=" stroke:none;fill-rule:nonzero;fill:rgb(73.333333%,9.019608%,19.215686%);fill-opacity:1;" d="M 49.8125 54.941406 C 49.097656 54.304688 48.757812 53.253906 48.757812 51.828125 L 48.757812 44.140625 C 48.757812 43.992188 48.835938 43.878906 49.023438 43.878906 L 50.867188 43.878906 C 51.058594 43.878906 51.132812 43.953125 51.132812 44.140625 L 51.132812 51.605469 C 51.132812 52.316406 51.207031 52.953125 51.546875 53.328125 C 51.8125 53.667969 52.300781 53.890625 52.941406 53.890625 C 53.582031 53.890625 54.070312 53.703125 54.371094 53.328125 C 54.710938 52.917969 54.75 52.316406 54.75 51.605469 L 54.75 44.140625 C 54.75 43.992188 54.863281 43.878906 55.050781 43.878906 L 56.898438 43.878906 C 57.085938 43.878906 57.160156 43.992188 57.160156 44.140625 L 57.160156 51.828125 C 57.160156 53.292969 56.785156 54.34375 55.992188 54.980469 C 55.277344 55.578125 54.296875 55.878906 52.941406 55.878906 C 51.507812 55.878906 50.492188 55.578125 49.8125 54.941406 "/>
<path style=" stroke:none;fill-rule:nonzero;fill:rgb(73.333333%,9.019608%,19.215686%);fill-opacity:1;" d="M 65.976562 54.042969 L 65.828125 55.429688 C 65.828125 55.617188 65.75 55.691406 65.523438 55.691406 L 61.003906 55.691406 C 59.835938 55.691406 59.15625 55.09375 59.15625 53.78125 L 59.15625 44.214844 C 59.15625 43.992188 59.234375 43.878906 59.496094 43.878906 L 65.675781 43.878906 C 65.863281 43.878906 65.976562 43.953125 65.941406 44.140625 L 65.789062 45.527344 C 65.789062 45.714844 65.675781 45.792969 65.488281 45.792969 L 61.570312 45.792969 L 61.570312 48.753906 L 65.1875 48.753906 C 65.410156 48.753906 65.449219 48.828125 65.449219 49.015625 L 65.300781 50.402344 C 65.300781 50.554688 65.1875 50.628906 64.996094 50.628906 L 61.570312 50.628906 L 61.570312 53.742188 L 65.75 53.742188 C 65.941406 53.78125 66.015625 53.855469 65.976562 54.042969 "/>
<path style=" stroke:none;fill-rule:nonzero;fill:rgb(73.333333%,9.019608%,19.215686%);fill-opacity:1;" d="M 78.449219 44.140625 L 78.222656 45.566406 C 78.183594 45.753906 78.109375 45.828125 77.882812 45.828125 L 75.585938 45.828125 L 75.585938 55.46875 C 75.585938 55.65625 75.507812 55.730469 75.285156 55.730469 L 75.019531 55.730469 C 73.851562 55.730469 73.171875 55.128906 73.171875 53.816406 L 73.171875 45.867188 L 70.574219 45.867188 C 70.421875 45.867188 70.308594 45.792969 70.308594 45.605469 L 70.308594 44.179688 C 70.308594 44.027344 70.421875 43.917969 70.574219 43.917969 L 78.148438 43.917969 C 78.371094 43.878906 78.449219 43.953125 78.449219 44.140625 "/>
<path style=" stroke:none;fill-rule:nonzero;fill:rgb(73.333333%,9.019608%,19.215686%);fill-opacity:1;" d="M 87.1875 53.929688 L 85.90625 46.691406 L 85.796875 46.691406 L 84.324219 55.28125 C 84.25 55.578125 84.023438 55.691406 83.683594 55.691406 L 82.402344 55.691406 C 81.347656 55.691406 80.859375 55.128906 80.632812 53.929688 C 80.332031 52.390625 79.425781 47.628906 79.050781 44.214844 C 79.011719 43.953125 79.125 43.878906 79.390625 43.878906 L 80.933594 43.878906 C 81.273438 43.878906 81.386719 43.953125 81.386719 44.179688 C 81.6875 47.367188 82.179688 51.117188 82.628906 53.703125 L 82.707031 53.703125 L 84.210938 44.777344 C 84.25 44.480469 84.4375 44.367188 84.777344 44.367188 L 86.886719 44.367188 C 87.226562 44.367188 87.414062 44.480469 87.453125 44.777344 L 88.996094 53.703125 L 89.074219 53.703125 C 89.523438 51.003906 90.050781 47.402344 90.277344 44.179688 C 90.277344 43.953125 90.429688 43.878906 90.769531 43.878906 L 92.3125 43.878906 C 92.652344 43.878906 92.691406 44.027344 92.652344 44.292969 C 92.238281 47.667969 91.523438 52.46875 90.804688 55.28125 C 90.730469 55.578125 90.46875 55.730469 90.128906 55.730469 L 88.960938 55.730469 C 87.90625 55.691406 87.414062 55.128906 87.1875 53.929688 "/>
<path style=" stroke:none;fill-rule:nonzero;fill:rgb(73.333333%,9.019608%,19.215686%);fill-opacity:1;" d="M 94.835938 54.867188 C 94.082031 54.230469 93.667969 53.21875 93.667969 51.90625 L 93.667969 47.628906 C 93.667969 46.128906 94.234375 45.078125 95.214844 44.402344 C 95.929688 43.917969 96.910156 43.691406 98.039062 43.691406 C 99.171875 43.691406 100.226562 43.953125 100.980469 44.480469 C 101.882812 45.117188 102.410156 46.167969 102.410156 47.628906 L 102.410156 51.90625 C 102.410156 53.328125 101.921875 54.378906 100.980469 55.054688 C 100.261719 55.578125 99.246094 55.84375 98.003906 55.84375 C 96.683594 55.878906 95.589844 55.542969 94.835938 54.867188 M 99.472656 53.441406 C 99.847656 53.066406 100.035156 52.429688 100.035156 51.679688 L 100.035156 47.890625 C 100.035156 47.027344 99.8125 46.503906 99.472656 46.128906 C 99.171875 45.828125 98.679688 45.679688 98.078125 45.679688 C 97.476562 45.679688 96.945312 45.828125 96.644531 46.128906 C 96.269531 46.503906 96.082031 47.027344 96.082031 47.890625 L 96.082031 51.679688 C 96.082031 52.429688 96.269531 53.066406 96.644531 53.441406 C 96.945312 53.742188 97.476562 53.890625 98.078125 53.890625 C 98.679688 53.890625 99.171875 53.742188 99.472656 53.441406 "/>
<g clip-path="url(#clip1)" clip-rule="nonzero">
<g clip-path="url(#clip2)" clip-rule="nonzero">
<path style=" stroke:none;fill-rule:nonzero;fill:url(#linear0);" d="M 55.050781 13.238281 L 103.578125 13.238281 L 103.578125 38.703125 L 55.050781 38.703125 Z M 55.050781 13.238281 "/>
</g>
</g>
<path style=" stroke:none;fill-rule:nonzero;fill:url(#linear1);" d="M 101.769531 11.777344 L 56.707031 11.777344 C 55.730469 11.777344 54.898438 12.601562 54.898438 13.574219 L 54.898438 37.054688 C 54.898438 38.027344 55.730469 38.851562 56.707031 38.851562 L 101.769531 38.851562 C 102.75 38.851562 103.578125 38.027344 103.578125 37.054688 L 103.578125 13.574219 C 103.578125 12.601562 102.75 11.777344 101.769531 11.777344 Z M 101.769531 11.777344 "/>
<use xlink:href="#surface5" mask="url(#mask0)"/>
<path style=" stroke:none;fill-rule:nonzero;fill:url(#linear3);" d="M 38.625 36.902344 C 38.964844 37.054688 39.605469 37.277344 40.433594 37.277344 C 41.863281 37.316406 42.617188 36.789062 43.183594 35.515625 L 50.792969 18.640625 C 50.492188 18.488281 49.777344 18.300781 49.210938 18.265625 C 48.230469 18.265625 46.914062 18.453125 46.085938 20.4375 L 43.636719 26.253906 L 38.8125 18.414062 C 38.511719 18.339844 37.71875 18.1875 37.191406 18.1875 C 35.460938 18.1875 34.515625 18.828125 33.539062 19.875 L 28.828125 24.976562 L 32.597656 30.902344 C 33.3125 31.988281 34.214844 32.550781 35.722656 32.550781 C 36.703125 32.550781 37.53125 32.328125 37.910156 32.140625 L 33.347656 25.316406 L 36.589844 21.902344 L 41.902344 30.152344 Z M 28.640625 30.527344 C 28.640625 31.765625 28.148438 32.476562 25.699219 32.476562 C 25.363281 32.476562 25.097656 32.476562 24.835938 32.402344 L 24.835938 15.902344 C 24.835938 14.664062 25.25 13.351562 27.734375 13.351562 C 28.035156 13.351562 28.375 13.386719 28.640625 13.425781 Z M 23.589844 28.015625 C 23.589844 30.339844 22.085938 32.027344 18.957031 32.363281 C 16.734375 32.628906 13.457031 32.328125 11.910156 32.140625 C 11.875 31.878906 11.835938 31.578125 11.835938 31.316406 C 11.835938 29.289062 12.929688 28.839844 13.984375 28.839844 C 15.078125 28.839844 16.734375 29.027344 18.015625 29.027344 C 19.410156 29.027344 19.824219 28.539062 19.824219 28.128906 C 19.824219 27.566406 19.257812 27.300781 18.203125 27.113281 L 15.265625 26.550781 C 12.816406 26.101562 11.496094 24.414062 11.496094 22.613281 C 11.496094 20.4375 13.042969 18.640625 16.09375 18.300781 C 18.390625 18.039062 21.179688 18.339844 22.726562 18.527344 C 22.761719 18.789062 22.800781 19.015625 22.800781 19.3125 C 22.800781 21.339844 21.707031 21.789062 20.691406 21.789062 C 19.898438 21.789062 18.65625 21.640625 17.261719 21.640625 C 15.828125 21.640625 15.226562 22.050781 15.226562 22.5 C 15.226562 22.988281 15.792969 23.214844 16.695312 23.363281 L 19.523438 23.890625 C 22.347656 24.378906 23.589844 26.027344 23.589844 28.015625 Z M 23.589844 28.015625 "/>
<use xlink:href="#surface8" mask="url(#mask1)"/>
<path style=" stroke:none;fill-rule:nonzero;fill:rgb(100%,100%,100%);fill-opacity:1;" d="M 73.550781 25.464844 C 73.550781 29.628906 70.613281 32.101562 67.371094 32.101562 C 65.449219 32.101562 63.867188 31.203125 62.925781 29.925781 L 62.925781 31.164062 C 62.925781 31.691406 62.625 31.988281 61.757812 31.988281 C 61.378906 31.988281 60.964844 31.914062 60.738281 31.878906 L 60.738281 15.339844 C 60.738281 14.851562 61.042969 14.515625 61.90625 14.515625 C 62.285156 14.515625 62.699219 14.589844 62.925781 14.625 L 62.925781 21.039062 C 63.867188 19.765625 65.410156 18.863281 67.371094 18.863281 C 70.613281 18.863281 73.550781 21.300781 73.550781 25.464844 Z M 71.328125 25.464844 C 71.328125 22.652344 69.445312 20.738281 66.957031 20.738281 C 65.261719 20.738281 63.679688 21.714844 62.964844 23.140625 L 62.964844 27.753906 C 63.679688 29.175781 65.261719 30.152344 66.957031 30.152344 C 69.445312 30.191406 71.328125 28.277344 71.328125 25.464844 Z M 87.792969 26.253906 L 77.84375 26.253906 C 78.148438 28.726562 79.84375 30.113281 82.402344 30.113281 C 83.496094 30.113281 84.363281 29.890625 85.15625 29.628906 C 85.71875 29.441406 85.945312 29.363281 86.171875 29.363281 C 86.773438 29.363281 87.1875 29.851562 87.074219 31.050781 C 85.90625 31.539062 84.175781 32.140625 82.328125 32.140625 C 78.335938 32.140625 75.621094 29.441406 75.621094 25.464844 C 75.621094 21.640625 78.484375 18.863281 81.988281 18.863281 C 85.945312 18.863281 87.867188 21.9375 87.867188 25.015625 C 87.867188 25.351562 87.828125 25.800781 87.792969 26.253906 Z M 77.84375 24.566406 L 85.71875 24.566406 C 85.644531 22.390625 84.210938 20.664062 81.953125 20.664062 C 79.992188 20.664062 78.183594 22.050781 77.84375 24.566406 Z M 98.265625 31.238281 C 97.136719 31.765625 95.855469 32.101562 94.574219 32.101562 C 92.050781 32.101562 90.503906 30.601562 90.503906 28.128906 L 90.503906 17.175781 C 90.503906 16.613281 90.84375 16.238281 91.671875 16.238281 C 92.050781 16.238281 92.464844 16.3125 92.691406 16.390625 L 92.691406 19.125 L 97.664062 19.125 C 97.699219 19.3125 97.738281 19.6875 97.738281 19.988281 C 97.738281 20.777344 97.398438 21.039062 96.945312 21.039062 L 92.726562 21.039062 L 92.726562 27.976562 C 92.726562 29.476562 93.40625 30.191406 94.835938 30.191406 C 96.117188 30.191406 96.835938 29.628906 97.4375 29.628906 C 98.078125 29.628906 98.378906 30.191406 98.265625 31.238281 Z M 98.265625 31.238281 "/>
</g>
</svg>
