<svg height="382.987842" viewBox="0 0 340.7 500" width="261.104894" xmlns="http://www.w3.org/2000/svg"><path d="m0 0v500h340.7v-500zm176.4 61.4c15.3.4 30.2 2.5 44.1 8.5l-22.8 39c-7.2-2.6-14.6-4.1-22.2-4.2-38.1-.7-69.7 28.6-70.4 65.1-.2 19 7.9 37.2 22.6 49.6l-22.4 38.3c-28.6-20.6-45.2-53.8-44.8-88.9 1.1-60.3 53-108.4 115.9-107.4zm26.8 116.4c0 18.2-14.6 32.8-32.8 32.8s-32.8-14.6-32.8-32.8 14.6-32.8 32.8-32.8 32.8 14.7 32.8 32.8zm-68.2 184.3c1.9 0 4.1-.4 5.8-1.2v-9.7l8.6-1.1v15.2c-1.9 1.6-6.5 4.6-15 4.6-12.5 0-21-8.5-21-19s8.5-19 21.2-19c4.8-.2 9.5.7 13.8 2.6l-2.3 8.1c-3.5-1.6-7.2-2.5-11.1-2.3-7.1 0-11.8 4.2-11.8 10.8 0 6.4 5.2 11 11.8 11zm-30-29.8v37.2h-9.3v-37.2zm-43.2 0h9.3v29.5h17.6v7.8h-27v-37.3zm57.3 113.2h-38.4l6.9-43.9c1.6-9.7 8.1-15.9 18.2-15.9h38.4l-6.9 43.9c-1.6 9.8-8.2 15.9-18.2 15.9zm55.9 0h-38.3l6.9-43.9c1.6-9.7 8.1-15.9 18.2-15.9h38.3l-6.9 43.9c-1.6 9.8-8.1 15.9-18.2 15.9zm.2-83.7c4.6.2 8.5-3.3 8.6-7.9v-21.5h9.3v20.8c0 10.9-7.1 16.8-17.6 16.8-10.6 0-17.6-5.6-17.6-16.8v-20.8h9.3v21.5c.2 4.2 3.7 7.7 8 7.9zm74.1 67.9c-1.6 9.7-8.1 15.9-18.2 15.9h-38.1l6.9-43.9c1.6-9.7 8.1-15.9 18.2-15.9h38.1zm-22.3-82.9v7.4h-14.5v7.6h18.3v7.8h-27.7v-37.2h27.2v7.8h-17.8v6.7h14.5zm52.1 22.7h-29.3v-1.6l14.6-17.1c2.1-2.6 2.8-3.7 2.8-5.5v-.4c-.4-3-2.8-4.9-5.6-4.8-2.8.2-5.6 1.2-7.8 3.2l-4.8-6.9c3.9-3.2 8.8-4.8 13.9-4.8 4.9 0 8.8 1.2 11.5 3.5 2.3 2.1 3.5 5.1 3.5 8.1-.2 3.5-1.6 6.9-4.1 9.3l-7.6 8.8-.2.2h12.9v8zm-114.7-74.9c-15.3-.4-30.2-2.5-44.1-8.5l22.8-39c7.2 2.6 14.6 4.1 22.2 4.2 38.3.5 69.7-28.6 70.4-65.1.2-19-7.9-37.2-22.2-49.7l22-38.3c28.6 20.6 45.1 53.8 44.8 88.9-1.1 60.4-53.1 108.5-115.9 107.5z" fill="#091c3e"/><path d="m170.4 145c-18.2 0-32.8 14.6-32.8 32.8s14.6 32.8 32.8 32.8 32.8-14.6 32.8-32.8c0-18.1-14.6-32.8-32.8-32.8z" fill="#fff"/><path d="m105.3 257.7 22.4-38.4c-14.6-12.3-22.8-30.5-22.6-49.6.7-36.5 32.3-65.8 70.4-65.1 7.6.2 15 1.6 22.2 4.2l22.8-39c-13.9-6-28.7-8.1-44.1-8.5-63-1.1-114.8 47.1-115.9 107.4-.3 35.2 16.3 68.4 44.8 89zm130.2-159.4-22 38.3c14.3 12.5 22.4 30.7 22.2 49.7-.7 36.5-32.1 65.6-70.4 65.1-7.6-.2-15-1.6-22.2-4.2l-22.8 39c13.9 6 28.7 8.1 44.1 8.5 62.8 1.1 114.8-47.1 115.9-107.4.3-35.2-16.2-68.4-44.8-89z" fill="#16ffd0"/><path d="m113.6 418.4h-8.3l-1.2 6.5h9.7c2.6 0 6.3-.9 6-3.5-.4-2.7-3-3-6.2-3zm1.3-12h-7.8l-.9 5.3h8.6c2.3 0 5.1-.7 4.9-2.8-.1-2.2-2.2-2.5-4.8-2.5z" fill="#8dc63f"/><path d="m144.1 385.8h-38.4c-10.1 0-16.6 6.2-18.2 15.9l-6.9 43.9h38.4c10.1 0 16.6-6.2 18.2-15.9zm-27.8 47.4h-28.4l5.8-35.3h25.2c10.8 0 15.2 2.6 15.7 7.8.5 4.4-2.1 7.4-7.9 8.6 4.6.7 7.9 3.7 8.5 7.1 1 8.4-8.2 11.8-18.9 11.8z" fill="#8dc63f"/><path d="m200 385.8h-38.3c-10.1 0-16.6 6.2-18.2 15.9l-6.9 43.9h38.3c10.1 0 16.6-6.2 18.2-15.9zm-26.4 47.4-10.4-13.8-4.8 3.4-1.6 10.4h-14.8l5.8-35.3h14.9l-1.9 11.6.2.2 15-11.8 19.4-.2-21.3 14.6 16.4 20.8z" fill="#0db14b"/><path d="m199.9 401.6-6.9 43.9h38.1c10.1 0 16.6-6.2 18.2-15.9l6.9-43.9h-38.1c-10.1.1-16.6 6.2-18.2 15.9zm46.9 5.3h-13.8l-4.4 26.3h-15.2l4.4-26.3h-13.8l1.4-9h42.9z" fill="#00854a"/><path d="m126.7 414.3c5.8-1.2 8.5-4.2 7.9-8.6-.5-5.1-4.9-7.8-15.7-7.8h-25.2l-5.8 35.3h28.4c10.8 0 19.9-3.3 18.9-11.8-.6-3.4-3.9-6.4-8.5-7.1zm-12.9 10.6h-9.7l1.2-6.5h8.3c3.2 0 5.8.4 6.2 3s-3.3 3.5-6 3.5zm1.1-13.2h-8.6l.9-5.3h7.8c2.6 0 4.8.4 4.9 2.5s-2.7 2.8-5 2.8zm80.4-14-19.4.2-15 11.8-.2-.1 2-11.7h-14.9l-5.8 35.3h14.8l1.6-10.4 4.8-3.4 10.4 13.8h16.7l-16.4-20.8zm8.8 9.2h13.8l-4.4 26.3h15.1l4.4-26.3h13.8l1.6-9h-42.9zm62.3-45.3 7.6-8.8c2.5-2.5 3.9-5.8 4.1-9.3 0-3-1.2-6-3.5-8.1-2.6-2.3-6.5-3.5-11.5-3.5-5.1 0-10.1 1.6-13.9 4.8l4.8 6.9c2.1-1.9 4.9-3 7.8-3.2 2.8-.2 5.3 1.8 5.6 4.8v.4c0 1.8-.7 2.8-2.8 5.5l-14.6 17.1v1.6h29.3v-7.8h-12.9zm-108.5-29.3v20.8c0 11.1 7.1 16.8 17.6 16.8 10.6 0 17.6-5.8 17.6-16.8v-20.8h-9.3v21.5c-.2 4.6-4.1 8.1-8.6 7.9-4.2-.2-7.8-3.7-7.9-7.9v-21.5zm-62.3 0h9.3v37.2h-9.3zm39.4 8c3.9-.2 7.6.7 11.1 2.3l2.3-8.1c-4.2-1.9-9-2.8-13.8-2.6-12.7 0-21.2 8.5-21.2 19s8.5 19 21 19c8.5 0 13.1-3 15-4.6v-15.2l-8.6 1.1v9.7c-1.8.9-3.9 1.2-5.8 1.2-6.5 0-11.8-4.6-11.8-11.1s4.7-10.7 11.8-10.7zm95.4-.2v-7.8h-27.2v37.2h27.7v-7.7h-18.3v-7.6h14.4v-7.4h-14.4v-6.7zm-141.6 21.7h-17.7v-29.5h-9.3v37.2h27z" fill="#fff"/></svg>