<svg data-name="Capa 2" viewBox="0 0 440.11 386.33" xmlns="http://www.w3.org/2000/svg"><defs><style>.cls-1{fill:#00d4d6}</style></defs><g data-name="Capa 2"><g data-name="Layer 1"><path class="cls-1" d="M108.01 86.79 168.08 0h58.11l-74.78 106.41h48.55l-75.52 38.49-15.2-19.37c-5.39-7.11-7.85-12.5-7.85-19.86 0-6.62 2.45-12.99 6.62-18.88Zm49.28 89.74c0-6.13 2.45-12.75 6.86-19.12L274.73 0h63.99L214.66 176.53h55.9l-86.79 44.13-18.63-23.78c-5.15-6.62-7.85-13.24-7.85-20.35ZM0 308.91v-57.85h15.86v59.22h28.02v14.8H9.2l-6.24-7.72C.84 314.61 0 312.07 0 308.9m52.45 4.13 17.13-61.97h18.19c3.38 0 5.5 1.59 6.45 4.97l15.76 57c.74 2.54.85 4.23.85 7.51v4.55H96.76l-5.6-22.53-22.74 11.63-2.75 10.89H51.6v-4.55c0-3.28.11-4.97.85-7.51m37.96-13.32-8.35-33.84h-1.69l-8.35 33.84h18.4-.01Zm27.61 9.21v-57.85h15.86v59.22h28.02v14.8h-34.69l-6.24-7.72c-2.11-2.75-2.96-5.29-2.96-8.46m52.88-57.84h15.86v74.03h-15.86zm26.65 50.53v-27.03c0-15.76 8.57-24.32 24.32-24.32h6.94c15.55 0 24.32 7.93 24.32 22h-15.86v-2.96c0-2.75-1.48-4.23-4.23-4.23h-15.4c-2.75 0-4.23 1.48-4.23 4.23v37.6c0 2.75 1.48 4.23 4.23 4.23h15.4c2.75 0 4.23-1.48 4.23-4.23v-9.31h-11v-14.81h17.66l6.24 7.72c2.11 2.64 2.96 5.08 2.96 8.46v2.64c0 15.76-8.57 24.32-24.32 24.32h-6.94c-15.76 0-24.32-8.57-24.32-24.32m61.22 11.45 17.13-61.97h18.19c3.38 0 5.5 1.59 6.45 4.97l15.76 57c.74 2.54.85 4.23.85 7.51v4.55h-14.07l-5.6-22.53-22.74 11.63-2.75 10.89h-14.07v-4.55c0-3.28.11-4.97.85-7.51m37.96-13.32-8.35-33.84h-1.69l-8.35 33.84h18.4Zm103.15-2.3h-2.98v3.67h2.98c.26 0 .48-.09.65-.28.17-.2.24-.45.25-.75v-1.58c0-.31-.08-.56-.24-.76-.17-.2-.38-.3-.65-.3m-11.21-.02h-2.18c-.28 0-.5.09-.67.29s-.24.45-.24.76v6.59c-.01.3.07.55.23.75.17.21.39.31.67.32h2.18a.8.8 0 0 0 .65-.31c.18-.2.26-.45.26-.75v-6.59c.01-.31-.08-.56-.25-.76s-.39-.3-.65-.3m-10.9-.01h-3.1v3.98h3.1c.26 0 .49-.1.66-.29.17-.2.26-.45.26-.76v-1.88c0-.31-.08-.56-.26-.76a.82.82 0 0 0-.65-.3"/><path class="cls-1" d="M392.57 240.47c-26.29-.04-47.64 21.24-47.68 47.54-.04 26.29 21.24 47.64 47.54 47.68 26.29.04 47.64-21.24 47.68-47.54.04-26.29-21.24-47.64-47.54-47.68m-17.83 22.01 24.47.04-3.76 5.93-24.46-.02 3.75-5.95Zm-5.03 42.93c0 .76-.27 1.41-.79 1.94-.53.54-1.18.8-1.93.8h-3.23c-.77 0-1.41-.26-1.92-.78-.51-.51-.77-1.15-.77-1.93v-1.28h1.98l.29 1.18c.13.49.47.74 1.02.74h2.18c.27 0 .49-.1.67-.3.16-.2.25-.45.25-.75v-1.4c0-.69-.3-1.04-.91-1.04h-2.74c-.75 0-1.4-.27-1.94-.8-.52-.54-.79-1.18-.79-1.94v-1.86c0-.74.27-1.38.8-1.91.54-.53 1.19-.8 1.94-.8h3.19c.75 0 1.39.26 1.91.77s.77 1.15.77 1.92v1.15h-1.97l-.3-1.05c-.15-.5-.5-.74-1-.74h-2.15c-.28 0-.5.1-.67.3-.18.2-.25.45-.25.76v1.08c0 .67.3 1.01.92 1.01h2.74c.74 0 1.38.28 1.92.82s.8 1.18.8 1.93v2.17h-.02Zm11.23-4.69c0 .76-.27 1.4-.8 1.93-.55.53-1.2.8-1.95.8h-3.54v4.71h-2.27l.02-12.86h5.81c.75.01 1.4.28 1.95.81.53.52.8 1.17.79 1.91v2.7h-.01Zm10.88 4.7c0 .78-.26 1.43-.81 1.96-.54.53-1.17.8-1.94.8H386c-.77 0-1.41-.28-1.95-.81-.53-.53-.8-1.18-.8-1.96v-7.39c.01-.74.28-1.38.82-1.91.53-.54 1.18-.8 1.95-.8h3.07c.77 0 1.4.27 1.93.8.55.52.8 1.17.8 1.92v7.39Zm.57-13.16-30.99-.04 7.56-11.9h-5.53l3.77-5.95 23.05.03-3.78 5.95-10.33-.02-3.83 5.95 16.64.02 15.25-23.99 18.89 29.99h-7.15l-3.75-5.96-11.19-.02 3.77-5.96h3.67l-4.26-6.76-11.79 18.66Zm8.71 15.93-2.09-5.04h-2.16v5.03h-2.27l.02-12.86h5.68c.76 0 1.41.27 1.93.81.53.53.8 1.17.8 1.91v2.24c0 .58-.17 1.12-.49 1.58-.34.46-.76.79-1.25 1.01l2.25 5.32h-2.42Zm12.19-10.77h-3.3l-.02 10.78h-2.28l.02-10.79h-3.27v-2.08h8.84v2.09Zm10.29 8.06c0 .76-.27 1.41-.8 1.94s-1.19.8-1.95.8h-3.22c-.77 0-1.4-.26-1.92-.78-.51-.51-.77-1.15-.77-1.93v-1.28h1.98l.29 1.18c.14.49.47.74 1.02.74h2.18c.28 0 .5-.09.67-.3.16-.2.24-.46.24-.75v-1.41c0-.69-.3-1.04-.91-1.04h-2.74c-.76 0-1.41-.27-1.93-.81-.53-.54-.8-1.18-.8-1.94v-1.86c0-.75.28-1.38.81-1.91.52-.54 1.18-.8 1.93-.8h3.17c.76 0 1.39.26 1.92.77.52.51.78 1.15.77 1.92v1.15h-1.98l-.3-1.05c-.16-.5-.5-.74-1-.74h-2.16c-.28 0-.51.1-.67.3-.17.2-.25.45-.25.76v1.08c0 .67.31 1.01.91 1.01h2.74c.75 0 1.39.28 1.92.82.55.54.82 1.18.82 1.93v2.18l.03.02Zm1.4-9.48h-.48v1.03h-.24V296h-.48v-.21h1.21v.22Zm1.44 1.03v-.91s-.03.09-.06.14l-.4.61h-.04l-.4-.62-.08-.13c0 .05.03.09.03.14v.77h-.21v-1.24h.21l.48.75.49-.75h.19v1.24h-.23.02ZM26.64 365.44H7.97v-11.77H0v31.78h7.97v-13.02h18.67v13.02h8.02v-31.78h-8.02zm30.59-.13-10.5-11.64H36.72l14.79 16.52a6.479 6.479 0 0 1 1.65 4.31v10.96h7.97v-10.92c0-1.61.6-3.15 1.68-4.35l15.03-16.51H67.6l-10.36 11.64h-.01Zm45.18-11.64H79.97v31.78h8.02v-10.24c0-1.17.95-2.12 2.12-2.12h12.31c7.16 0 11.97-3.93 11.97-9.77s-4.7-9.65-11.97-9.65h-.01Zm4 9.65c0 .83 0 2.78-4 2.78H87.98v-5.48h14.43c3.7 0 4 1.33 4 2.7Zm19.22 9.15h21.69v-6.91h-21.69v-4.9h24.6v-6.99h-32.62v31.78h33.54v-6.95h-25.52zm65.77-8.87c0-6.03-5.02-9.93-12.8-9.93h-22.88v31.78h8.02v-10.12c0-1.06.86-1.92 1.92-1.92H173c1.33 0 2.59.71 3.28 1.85l6.19 10.2h9.18l-7.85-12.68c4.86-1.48 7.6-4.75 7.6-9.17Zm-7.97-.23c0 2.55-2.63 3.09-4.83 3.09h-14.87v-5.87h14.87c3.21 0 4.83.93 4.83 2.78Zm31.16 7.42-11.83-17.12h-7.28v31.78h7.87v-17.4l6.09 8.7c1.19 1.7 3.06 2.69 5.14 2.7h.04c2.06 0 3.93-.96 5.13-2.63l6.37-8.86v17.5h8.02v-31.78h-7.31l-12.24 17.12zm60.15-10.06h10.8c1.19 0 2.15.96 2.15 2.15v22.67h7.87v-22.67c0-1.19.96-2.15 2.15-2.15h10.66v-6.95h-33.64v6.95h.01Zm35.99-6.96h7.92v31.78h-7.92zm77.67 0v20.27l-19.95-20.27h-7.08v31.78h7.92v-20.2l20 20.2h7.18v-31.78zm-128.43 6.31c3.93 0 7.13 3.2 7.13 7.13v4.9c0 3.93-3.2 7.13-7.13 7.13h-8.11c-3.93 0-7.13-3.2-7.13-7.13v-4.9c0-3.93 3.2-7.13 7.13-7.13h8.11m0-7.09h-8.11c-7.85 0-14.22 6.37-14.22 14.22v4.9c0 7.85 6.37 14.22 14.22 14.22h8.11c7.85 0 14.22-6.37 14.22-14.22v-4.9c0-7.85-6.37-14.22-14.22-14.22zm84.38 7.09c3.93 0 7.13 3.2 7.13 7.13v4.9c0 3.93-3.2 7.13-7.13 7.13h-8.11c-3.93 0-7.13-3.2-7.13-7.13v-4.9c0-3.93 3.2-7.13 7.13-7.13h8.11m0-7.09h-8.11c-7.85 0-14.22 6.37-14.22 14.22v4.9c0 7.85 6.37 14.22 14.22 14.22h8.11c7.85 0 14.22-6.37 14.22-14.22v-4.9c0-7.85-6.37-14.22-14.22-14.22zm93.24 1.82-16.31 28.25-16.31-28.25h5.47l9.58 16.59 1.26 2.18 1.26-2.18 9.58-16.59h5.47m2.52-1.45h-8.83l-10 17.32-10-17.32h-8.83l18.82 32.6 18.82-32.6h.02z"/></g></g></svg>