<svg xmlns="http://www.w3.org/2000/svg" viewBox="0 0 325.95 487.79"><defs><style>.cls-1{fill:#fff;}</style></defs><g id="Layer_2" data-name="Layer 2"><g id="Capa_1" data-name="Capa 1"><path class="cls-1" d="M326,0H0V487.79H326ZM315.39,485.54a8.7,8.7,0,0,1,8.31-9.15v9.15ZM166,242.77a3.26,3.26,0,0,0-6.13,0h-44a47.06,47.06,0,0,1,94.09,0ZM159.91,245a3.26,3.26,0,0,0,6.13,0h44a47.06,47.06,0,0,1-94.09,0ZM323.7,11.4a9.65,9.65,0,0,1-6.36-3.18,9.72,9.72,0,0,1-1.95-6h8.31ZM213.39,2.25V32.64H112.56V2.25ZM110.31,34.89H215.64V2.25h49.29V84.37H61V2.25h49.29Zm90,51.73a47,47,0,0,1-74.64,0Zm-141.52,0h64.1a49.23,49.23,0,0,0,80.2,0h64.11V2.25h46a11.81,11.81,0,0,0,2.44,7.37,11.88,11.88,0,0,0,8.12,4V242.77H212.27a49.31,49.31,0,0,0-98.59,0H2.25V13.66a11.87,11.87,0,0,0,8.11-4,11.89,11.89,0,0,0,2.45-7.37h46ZM10.56,2.25A9.62,9.62,0,0,1,8.62,8.2a9.6,9.6,0,0,1-6.37,3.2V2.25ZM2.25,476.39a9.58,9.58,0,0,1,6.35,3.19,9.65,9.65,0,0,1,2,6H2.25Zm110.31,9.15V455.15H213.39v30.39ZM215.64,452.9H110.31v32.64H61V403.42H264.93v82.12H215.64Zm-90-51.73a47,47,0,0,1,74.64,0Zm141.53,0H203.07a49.25,49.25,0,0,0-80.2,0H58.77v84.37h-46a11.82,11.82,0,0,0-2.45-7.36,11.87,11.87,0,0,0-8.11-4V245H113.68a49.31,49.31,0,0,0,98.59,0H323.7V474.14a10.95,10.95,0,0,0-10.56,11.4h-46Z"/><path class="cls-1" d="M166.34,428.89a3.37,3.37,0,1,0-3.37,3.37A3.37,3.37,0,0,0,166.34,428.89Z"/><path class="cls-1" d="M159.61,58.9A3.37,3.37,0,1,0,163,55.54,3.36,3.36,0,0,0,159.61,58.9Z"/></g></g></svg>